<svg xmlns="http://www.w3.org/2000/svg" width="450" height="450" viewBox="0 0 450 450">
  <g id="image" transform="translate(-1113 -298)">
    <g id="Rectangle_1" data-name="Rectangle 1" transform="translate(1113 298)" fill="#ebdbff" stroke="#ef7141" stroke-width="1">
      <rect width="450" height="450" stroke="none"/>
      <rect x="0.5" y="0.5" width="449" height="449" fill="none"/>
    </g>
    <g id="Group_1" data-name="Group 1" transform="translate(12 -22)">
      <circle id="Ellipse_1" data-name="Ellipse 1" cx="65" cy="65" r="65" transform="translate(1261 340)" fill="#ef4141"/>
      <line id="Line_1" data-name="Line 1" y2="190.5" transform="translate(1326.5 469)" fill="none" stroke="#ef7141" stroke-width="2"/>
      <path id="Path_1" data-name="Path 1" d="M1330,461.691c-.989.692-4.308.725-7.217,3.311s-5.365,6.086-4.418,7.033,5.3-.66,8.205-3.246,3.43-7.1,3.43-7.1-1.374,1.944,3.874,5.836,10.685,6.943,11.271,5.32-4.239-6.138-8.025-8.927A10.127,10.127,0,0,0,1330,461.691Z" transform="translate(-4 8.49)" fill="#ef7141"/>
      <path id="Path_2" data-name="Path 2" d="M1327.511,671.385c-3.341,40.435,68.971-17.335,48.214,18.823s9.374,30.466,22.1,9.039,38.166-8.37,6.361,27.453-76.332,64.615-8.37,40.51,65.954-5.691,65.954-5.691" transform="translate(-1 -17)" fill="none" stroke="#ef7141" stroke-width="2"/>
      <path id="Path_3" data-name="Path 3" d="M53.5,0C83.047,0,107,25.819,107,57.668s-23.953,57.668-53.5,57.668c29.559.218,46.328-27.933,46.533-57.668C100.224,29.763,83.059.131,53.5,0Z" transform="translate(1273 347.282)" fill="#fc7070"/>
    </g>
    <text id="AmineBQ" transform="translate(1135 733)" fill="#c14e4e" font-size="16" font-family="SegoeUI, Segoe UI"><tspan x="0" y="0">Amine</tspan><tspan y="0" fill="#bb8237">BQ</tspan></text>
  </g>
</svg>
